<svg width="43" height="43" viewBox="0 0 43 43" fill="none" xmlns="http://www.w3.org/2000/svg">
<path fill-rule="evenodd" clip-rule="evenodd" d="M18.8769 1.26982C19.5905 0.557165 20.5452 0.137827 21.5528 0.0945391C22.5603 0.0512506 23.5475 0.387155 24.3196 1.03598L24.5776 1.27184L28.4077 5.09993H33.8221C34.8389 5.10012 35.818 5.4845 36.5634 6.17607C37.3088 6.86764 37.7654 7.81532 37.8416 8.82925L37.8537 9.13163V14.5462L41.6837 18.3763C42.3969 19.09 42.8166 20.0452 42.8599 21.0532C42.9032 22.0613 42.567 23.0489 41.9176 23.8211L41.6817 24.0771L37.8517 27.9072V33.3218C37.852 34.339 37.4679 35.3186 36.7763 36.0645C36.0847 36.8103 35.1367 37.2672 34.1225 37.3434L33.8221 37.3535H28.4097L24.5796 41.1836C23.866 41.8968 22.9108 42.3165 21.9028 42.3598C20.8948 42.4031 19.9071 42.0669 19.135 41.4175L18.8789 41.1836L15.0489 37.3535H9.63245C8.61532 37.3538 7.63566 36.9697 6.88985 36.2781C6.14404 35.5864 5.6872 34.6385 5.61092 33.6242L5.60084 33.3218V27.9072L1.77081 24.0771C1.0576 23.3634 0.637919 22.4083 0.594628 21.4002C0.551336 20.3922 0.887583 19.4045 1.53697 18.6323L1.77081 18.3763L5.60084 14.5462V9.13163C5.60102 8.11483 5.98539 7.13565 6.67695 6.39025C7.3685 5.64485 8.31616 5.18829 9.33008 5.11203L9.63245 5.09993H15.0469L18.8769 1.26982ZM27.9339 15.1449L19.3789 23.7002L15.8149 20.1361C15.4367 19.7582 14.9238 19.5459 14.389 19.5461C13.8543 19.5463 13.3415 19.7589 12.9636 20.1372C12.5856 20.5154 12.3733 21.0283 12.3735 21.5631C12.3737 22.0978 12.5863 22.6106 12.9646 22.9886L17.8106 27.8347C18.0165 28.0407 18.261 28.2041 18.5301 28.3156C18.7992 28.4271 19.0876 28.4845 19.3789 28.4845C19.6701 28.4845 19.9586 28.4271 20.2277 28.3156C20.4968 28.2041 20.7412 28.0407 20.9472 27.8347L30.7843 17.9953C31.1515 17.6151 31.3547 17.1059 31.3501 16.5774C31.3455 16.0488 31.1335 15.5432 30.7597 15.1695C30.386 14.7957 29.8804 14.5837 29.3519 14.5791C28.8233 14.5745 28.3141 14.7777 27.9339 15.1449Z" fill="#FF9E18"/>
</svg>
