<svg width="52" height="46" viewBox="0 0 52 46" fill="none" xmlns="http://www.w3.org/2000/svg">
<path d="M50.9806 4.98521C50.0787 4.37947 48.8564 4.61953 48.2503 5.52168L42.8343 13.5863C42.2399 13.2894 41.5699 13.1216 40.8601 13.1216H37.9088C37.2028 13.1216 36.5358 13.2878 35.9433 13.5819L30.5306 5.52186C29.9245 4.61936 28.7023 4.37964 27.8002 4.98539C26.898 5.59131 26.658 6.81361 27.2637 7.71576L33.5138 17.0225C33.4677 17.4114 33.4875 43.2509 33.4875 43.2509C33.4875 44.6092 34.5887 45.7103 35.947 45.7103C37.3054 45.7103 38.4065 44.6092 38.4065 43.2509V32.1828H40.3742V43.2509C40.3742 44.6092 41.4753 45.7103 42.8336 45.7103C44.192 45.7103 45.2931 44.6092 45.2931 43.2509C45.2931 33.7458 45.3052 17.4596 45.257 17.0374L51.5171 7.71576C52.1229 6.81344 51.8828 5.59114 50.9806 4.98521Z" fill="#FF9E18"/>
<path d="M39.3903 11.747C41.994 11.747 44.1057 9.63724 44.1057 7.03177C44.1057 5.37718 43.251 3.9219 41.9596 3.08069C42.2153 2.91008 42.5068 2.75204 42.8451 2.61455C43.0062 2.54918 43.1146 2.39646 43.1228 2.22283C43.1311 2.0492 43.0376 1.88674 42.8832 1.80648C42.1375 1.41919 41.2288 1.41121 40.3713 1.57563C40.5168 1.30314 40.7 1.0248 40.9352 0.742571C41.0465 0.608984 41.0701 0.422955 40.9955 0.266159C40.9209 0.109186 40.7618 0.00997039 40.588 0.0117421C38.8647 0.031408 37.2839 1.77849 36.6543 2.82326C36.5421 3.00929 36.4519 3.20365 36.3843 3.40084C35.3402 4.26578 34.6749 5.57135 34.6749 7.03159C34.6751 9.63724 36.7868 11.747 39.3903 11.747Z" fill="#FF9E18"/>
<path d="M24.6637 4.98517C23.7617 4.37943 22.5394 4.61949 21.9333 5.52165L20.6506 7.4319C20.1457 7.19485 19.5835 7.16437 19.0463 7.45369C19.0134 7.47141 18.9831 7.49178 18.9517 7.51092L18.9593 7.4893C19.0945 7.10484 18.8924 6.68371 18.5079 6.54853C18.2459 6.45622 17.9693 6.52319 17.7755 6.69505C17.6026 4.25009 15.5639 2.31787 13.0736 2.31787C10.5831 2.31787 8.54436 4.25009 8.37145 6.69505C8.17727 6.52319 7.9007 6.45604 7.63902 6.54853C7.25456 6.68371 7.05241 7.10484 7.18759 7.4893L7.19521 7.51092C7.16385 7.49161 7.13338 7.47123 7.10078 7.45369C6.56378 7.16437 6.00126 7.19484 5.49632 7.43172L4.21361 5.52165C3.60768 4.61914 2.38485 4.37925 1.48323 4.98517C0.58108 5.5911 0.341014 6.8134 0.94676 7.71555L3.19877 11.0689C3.07741 11.6907 3.07458 12.3245 3.28382 12.8985C3.34335 13.0618 3.49235 13.1758 3.66544 13.1901C3.83889 13.2045 4.00437 13.1168 4.08994 12.9656C4.14929 12.8609 4.2106 12.763 4.27278 12.6684L7.19681 17.0223C7.15251 17.3977 7.16456 17.0477 7.16456 23.3447L4.4861 34.2647C4.36119 34.7741 4.47706 35.3127 4.80093 35.7253C5.12444 36.1381 5.61999 36.3791 6.14459 36.3791H7.17058V43.2505C7.17058 44.6088 8.2717 45.71 9.63007 45.71C10.9884 45.71 12.0895 44.6088 12.0895 43.2505V36.3791H14.0572V43.2505C14.0572 44.6088 15.1583 45.71 16.5167 45.71C17.875 45.71 18.9762 44.6088 18.9762 43.2505V36.3791H19.9906C20.5152 36.3791 21.0108 36.1381 21.3343 35.7253C21.6582 35.3127 21.774 34.7741 21.6491 34.2647L18.9705 23.3436C18.9705 17.045 18.9817 17.4018 18.94 17.0372L21.8741 12.668C21.9365 12.7626 21.9976 12.8606 22.057 12.9653C22.1426 13.1166 22.3082 13.2043 22.4815 13.1898C22.6549 13.1754 22.8038 13.0615 22.8633 12.8981C23.0725 12.3241 23.0695 11.6904 22.9482 11.0685L25.2002 7.7152C25.8059 6.8134 25.5658 5.5911 24.6637 4.98517ZM16.5176 13.5863C15.9232 13.2893 15.2529 13.1216 14.5432 13.1216H11.5919C10.8859 13.1216 10.2188 13.2877 9.62652 13.5817L7.49055 10.4015C7.65904 10.2969 7.79104 10.1796 7.87218 10.0289C7.9349 9.91229 7.98433 9.79217 8.02083 9.6701C8.15955 9.81963 8.35479 9.9075 8.56013 9.9075C8.64128 9.9075 8.72402 9.89404 8.80481 9.86551C8.94105 9.8175 9.05302 9.73246 9.13665 9.62686C9.98051 10.9043 11.4285 11.7471 13.0736 11.7471C14.7186 11.7471 16.1666 10.9043 17.0103 9.62686C17.0939 9.73246 17.2059 9.8175 17.3423 9.86551C17.4233 9.89404 17.5058 9.9075 17.587 9.9075C17.7923 9.9075 17.9876 9.81945 18.1263 9.6701C18.1628 9.79199 18.212 9.91229 18.2749 10.0289C18.3561 10.1795 18.4881 10.2967 18.6565 10.4013L16.5176 13.5863Z" fill="#FF9E18"/>
</svg>
