<svg width="52" height="52" viewBox="0 0 52 52" fill="none" xmlns="http://www.w3.org/2000/svg">
<path fill-rule="evenodd" clip-rule="evenodd" d="M20.6389 51.7638C9.36308 51.7638 0.222229 42.623 0.222229 31.3472C0.222229 20.0714 9.36308 10.9305 20.6389 10.9305C31.9147 10.9305 41.0556 20.0714 41.0556 31.3472C41.0556 42.623 31.9147 51.7638 20.6389 51.7638ZM20.6389 46.6597C29.0958 46.6597 35.9514 39.804 35.9514 31.3472C35.9514 22.8903 29.0958 16.0347 20.6389 16.0347C12.182 16.0347 5.3264 22.8903 5.3264 31.3472C5.3264 39.804 12.182 46.6597 20.6389 46.6597ZM28.2951 33.8993C28.2951 38.1277 24.8673 41.5555 20.6389 41.5555C16.4105 41.5555 12.9826 38.1277 12.9826 33.8993H28.2951ZM15.5347 28.7951C16.9442 28.7951 18.0868 27.6525 18.0868 26.243C18.0868 24.8335 16.9442 23.6909 15.5347 23.6909C14.1253 23.6909 12.9826 24.8335 12.9826 26.243C12.9826 27.6525 14.1253 28.7951 15.5347 28.7951ZM25.7431 28.7951C24.3336 28.7951 23.191 27.6525 23.191 26.243C23.191 24.8335 24.3336 23.6909 25.7431 23.6909C27.1525 23.6909 28.2951 24.8335 28.2951 26.243C28.2951 27.6525 27.1525 28.7951 25.7431 28.7951ZM42.6506 16.0347C40.5402 15.5761 34.0373 11.9769 34.0373 5.50732C34.0373 2.86456 36.1797 0.722168 38.8225 0.722168C40.3878 0.722168 41.7776 1.47377 42.6506 2.63576C43.5236 1.47377 44.9134 0.722168 46.4787 0.722168C49.1215 0.722168 51.2639 2.86456 51.2639 5.50732C51.2639 11.9769 44.761 15.5761 42.6506 16.0347Z" fill="#FF9E18"/>
</svg>
