<svg width="55" height="40" viewBox="0 0 55 40" fill="none" xmlns="http://www.w3.org/2000/svg">
<path d="M54.7222 5.20289V21.7307C54.7222 21.7307 51.193 22.4209 50.4639 22.5182C49.7347 22.6154 47.4694 23.3446 45.8167 21.7598C43.2694 19.2709 34.2375 10.2779 34.2375 10.2779C33.6698 9.81629 32.9697 9.54764 32.239 9.51092C31.5082 9.47421 30.7847 9.67135 30.1736 10.0737C27.8792 11.2793 24.4667 13.0584 23.0472 13.7487C22.5686 14.0285 22.0268 14.1823 21.4725 14.1956C20.9183 14.209 20.3697 14.0815 19.8781 13.825C19.3866 13.5685 18.9682 13.1916 18.662 12.7293C18.3559 12.2671 18.1721 11.7347 18.1278 11.1821C18.1589 10.553 18.3671 9.94548 18.7283 9.42948C19.0894 8.91348 19.589 8.50997 20.1694 8.26539C23.4069 6.32095 30.2417 2.43206 33.0903 0.954282C34.8208 -0.0179401 36.0653 -0.0179401 38.4472 1.9265C41.3736 4.44456 44.0278 6.6515 44.0278 6.6515C44.3421 6.87571 44.7013 7.02917 45.0806 7.10133C45.4599 7.1735 45.8503 7.16266 46.225 7.06956C49.5014 6.389 54.7222 5.20289 54.7222 5.20289ZM18.75 33.1251C18.9701 32.6201 19.0427 32.063 18.9593 31.5184C18.8759 30.9739 18.64 30.464 18.2789 30.048C17.9178 29.6319 17.4462 29.3266 16.9188 29.1675C16.3913 29.0083 15.8296 29.0018 15.2986 29.1487C15.4598 28.6507 15.4871 28.119 15.3779 27.6071C15.2687 27.0952 15.0267 26.621 14.6764 26.2321C14.295 25.8684 13.8257 25.61 13.3144 25.4821C12.8031 25.3543 12.2674 25.3615 11.7597 25.5029C11.9196 25.004 11.9454 24.4719 11.8344 23.9599C11.7235 23.4479 11.4798 22.9742 11.1278 22.5862C10.4977 22.0042 9.66502 21.6917 8.8076 21.7153C7.95018 21.7389 7.13597 22.0968 6.53888 22.7126C5.19721 23.9959 4.33194 26.3293 5.56666 27.7098C6.80138 29.0904 8.13333 28.2446 9.18333 28.0015C8.89166 29.0418 8.01666 30.014 9.09583 31.3751C10.175 32.7362 11.6625 31.9098 12.7125 31.6668C12.4208 32.7071 11.5847 33.7668 12.6153 35.0307C13.6458 36.2946 15.3764 35.6237 16.5042 35.2737C16.0667 36.3918 15.1333 37.5973 16.3292 38.9584C17.525 40.3196 20.2958 39.6876 21.6472 38.3946C22.2884 37.8293 22.6791 37.0328 22.7338 36.1799C22.7885 35.3269 22.5026 34.487 21.9389 33.8446C21.5277 33.4386 21.0109 33.1561 20.4473 33.0289C19.8837 32.9017 19.2957 32.9351 18.75 33.1251ZM43.3958 24.5501L32.9639 14.1668C32.4814 13.7155 31.8789 13.4131 31.2287 13.2958C30.5786 13.1785 29.9084 13.2514 29.2986 13.5057C27.8403 14.1473 25.9639 15.0223 24.5444 15.6834C23.5673 16.2653 22.4764 16.6301 21.3458 16.7529C20.1598 16.7642 19.0026 16.3872 18.0509 15.6794C17.0991 14.9716 16.4051 13.9719 16.0746 12.8328C15.7441 11.6937 15.7953 10.4777 16.2204 9.37043C16.6456 8.26315 17.4213 7.32535 18.4292 6.70012C20.6944 5.15428 25.643 2.50012 25.643 2.50012C25.0203 1.84541 24.2637 1.33278 23.4248 0.997208C22.5858 0.661637 21.6844 0.511031 20.7819 0.555671C17.4569 0.555671 10.4958 5.12512 10.4958 5.12512C9.75932 5.50992 8.94462 5.72134 8.11393 5.74324C7.28325 5.76515 6.45854 5.59695 5.70277 5.2515L0.277771 3.36539V22.2265C0.277771 22.2265 1.8236 22.6737 3.19444 23.1987C3.50584 22.291 4.02523 21.4686 4.7111 20.7973C5.81751 19.7358 7.28843 19.1382 8.82172 19.1273C10.355 19.1165 11.8342 19.6932 12.9555 20.739C13.5795 21.3832 14.028 22.1765 14.2583 23.0432C15.1016 23.3057 15.8666 23.7734 16.4847 24.4043C17.1109 25.0605 17.5564 25.8677 17.7778 26.7473C18.6667 27.0232 19.4677 27.5276 20.1007 28.21C20.7336 28.8924 21.1764 29.7291 21.3847 30.6362C22.2679 30.8877 23.0692 31.3672 23.7083 32.0265C24.3048 32.6502 24.7458 33.4057 24.9958 34.2317C25.2458 35.0576 25.2977 35.9309 25.1472 36.7807C25.1472 36.7807 25.925 37.6557 26.4014 38.1321C26.85 38.5807 27.4586 38.8328 28.093 38.8328C28.7275 38.8328 29.3361 38.5807 29.7847 38.1321C30.2334 37.6834 30.4854 37.0749 30.4854 36.4404C30.4854 35.8059 30.2334 35.1974 29.7847 34.7487C29.7847 34.7487 31.7292 37.1598 33.9458 35.7209C35.8903 34.3598 35.5889 32.7459 34.6653 31.8321C34.9472 32.1677 35.2971 32.4398 35.6919 32.6304C36.0867 32.821 36.5174 32.9257 36.9556 32.9376C37.3938 32.9496 37.8296 32.8685 38.2342 32.6997C38.6388 32.5309 39.003 32.2783 39.3028 31.9584C39.7201 31.5357 39.9644 30.9723 39.9878 30.3788C40.0112 29.7852 39.8119 29.2044 39.4292 28.7501C39.4292 28.7501 40.7222 30.5098 43.318 28.8668C45.1555 27.3112 44.2903 25.5321 43.318 24.5987L43.3958 24.5501Z" fill="#FF9E18"/>
</svg>
