<svg width="39" height="50" viewBox="0 0 39 50" fill="none" xmlns="http://www.w3.org/2000/svg">
<path fill-rule="evenodd" clip-rule="evenodd" d="M17.3842 5.72128C16.0572 5.72128 14.9816 6.80021 14.9816 8.13112V15.3606H27.153C29.2829 15.3605 31.1181 15.3604 32.5878 15.5586C34.1627 15.771 35.6726 16.2499 36.897 17.4781C38.1216 18.7063 38.599 20.2205 38.8109 21.8002C39.0084 23.2743 39.0084 25.1149 39.0082 27.2512V37.2077C39.0084 39.344 39.0084 41.1847 38.8109 42.6588C38.599 44.2384 38.1216 45.7527 36.897 46.9808C35.6726 48.2091 34.1627 48.6879 32.5878 48.9005C31.1181 49.0986 29.2829 49.0986 27.153 49.0983H12.4207C10.2908 49.0986 8.45561 49.0986 6.98602 48.9005C5.41103 48.6879 3.90132 48.2091 2.67678 46.9808C1.45221 45.7527 0.974706 44.2384 0.762959 42.6588C0.565364 41.1847 0.56546 39.344 0.565581 37.2077V27.2512C0.56546 25.1149 0.565364 23.2743 0.762959 21.8002C0.974706 20.2205 1.45221 18.7063 2.67678 17.4781C3.90132 16.2499 5.41103 15.771 6.98602 15.5586C7.91062 15.4339 8.9799 15.3877 10.1763 15.3706V8.13112C10.1763 4.13838 13.4034 0.901611 17.3842 0.901611H22.3397C26.2376 0.901611 29.3975 4.07093 29.3975 7.9805V8.13112C29.3975 9.46202 28.3219 10.541 26.9949 10.541C25.6679 10.541 24.5922 9.46202 24.5922 8.13112V7.9805C24.5922 6.73276 23.5838 5.72128 22.3397 5.72128H17.3842ZM19.7869 27.4098C17.1329 27.4098 14.9816 29.5676 14.9816 32.2295C14.9816 34.8914 17.1329 37.0491 19.7869 37.0491C22.4409 37.0491 24.5922 34.8914 24.5922 32.2295C24.5922 29.5676 22.4409 27.4098 19.7869 27.4098Z" fill="#FF9E18"/>
</svg>
