<svg width="142" height="59" viewBox="0 0 142 59" fill="none" xmlns="http://www.w3.org/2000/svg">
<path d="M14.9511 44.7486C15.0374 45.4822 15.0676 46.2203 15.0417 46.9562C15.1582 47.6136 20.4153 48.0795 19.7225 43.9909C18.3068 35.6242 17.1156 27.7104 15.9028 19.2893C14.6899 10.8682 17.9249 9.20051 22.0705 8.60833C26.4449 8.02268 30.3251 10.5808 30.8279 14.5236C31.5918 20.6826 26.447 23.6 21.6993 23.9897C21.313 24.0115 20.9505 24.1748 20.6764 24.4491C19.6082 25.5594 20.4476 28.2612 22.8344 28.0174C26.3413 27.656 34.857 30.2467 35.8216 39.297C36.3374 44.1085 33.6182 50.8467 25.0443 52.1856C13.8828 54.0187 7.62879 47.1978 5.86998 39.3493C4.18885 31.8883 8.36685 29.9507 8.24384 29.2736C8.02803 28.0566 4.86001 25.9861 2.37609 28.4855C1.23448 29.6154 -1.00774 32.6002 0.518002 40.4683C3.00192 53.2785 13.598 59.037 25.5299 57.3671C35.9619 55.9085 42.326 48.4475 41.3549 38.7005C40.578 31.2264 36.0547 27.079 30.2323 25.1871C34.4059 23.4128 36.9675 19.8096 36.3093 13.9074C35.567 7.03863 29.0518 2.45143 21.2483 3.68586C10.9716 5.35571 9.18691 11.9219 10.6738 20.2167C12.1154 28.4049 13.5419 36.5822 14.9511 44.7486Z" fill="#FF9E18"/>
<path d="M114.714 56.9624C96.7046 55.6213 78.633 55.4014 60.5982 56.3049C54.2211 56.6989 51.0337 56.9624 44.6825 57.6199C44.3221 57.646 43.966 57.7222 43.6272 57.8441C43.4222 57.9246 43.2237 58.0248 43.0338 58.1402C42.9086 58.2164 42.7942 58.3078 42.6885 58.4101C42.6173 58.4907 42.5201 58.5408 42.4144 58.5538C42.3518 58.5582 42.2892 58.5451 42.2331 58.519C42.177 58.4907 42.1295 58.4493 42.095 58.3971C41.9806 58.2447 41.8878 58.077 41.8209 57.8985C41.7346 57.6852 41.6656 57.4653 41.6116 57.241C41.5533 57.0037 41.508 56.7621 41.4821 56.5182C41.3224 55.5777 41.5037 54.6111 41.9979 53.7968C42.1921 53.4703 42.4554 53.1916 42.7705 52.9826C43.0856 52.7736 43.4438 52.6386 43.8171 52.5885C50.2525 51.931 53.4787 51.6349 59.9421 51.2344C78.3805 50.296 96.86 50.5159 115.27 51.8918C117.97 52.1292 119.312 52.2598 122.006 52.5493C126.453 53.0152 128.676 53.2852 133.089 53.8643C133.452 53.9231 133.819 53.9383 134.186 53.9035C134.408 53.8752 134.626 53.8273 134.837 53.7598C134.978 53.7184 135.111 53.6575 135.235 53.5813C135.325 53.5225 135.435 53.4986 135.541 53.516C135.606 53.5269 135.666 53.5552 135.716 53.5965C135.765 53.6379 135.804 53.6923 135.828 53.7533C135.897 53.9318 135.942 54.1169 135.964 54.3063C135.994 54.5436 136.007 54.7831 136.003 55.0225C135.996 55.2686 135.977 55.5146 135.944 55.7584C135.865 56.7098 135.446 57.6003 134.764 58.2621C134.492 58.5212 134.166 58.7149 133.808 58.8303C133.452 58.9435 133.074 58.974 132.703 58.9196C127.526 58.2164 124.932 57.9072 119.742 57.3869C117.752 57.2389 116.742 57.1387 114.714 56.9624Z" fill="#FF9E18"/>
<path d="M138.564 14.6977C138.564 15.4336 138.349 16.152 137.943 16.7638C137.537 17.3756 136.961 17.8524 136.288 18.1332C135.614 18.4141 134.872 18.4881 134.155 18.3444C133.439 18.2007 132.783 17.8458 132.265 17.3255C131.749 16.8052 131.397 16.1433 131.255 15.4205C131.113 14.6999 131.186 13.951 131.464 13.2717C131.743 12.5925 132.218 12.0112 132.824 11.6019C133.43 11.1926 134.145 10.9749 134.874 10.9749C135.854 10.9749 136.793 11.3667 137.483 12.0656C138.176 12.7644 138.564 13.7115 138.564 14.6977Z" fill="#FF9E18"/>
<path d="M139.529 39.7479C139.529 39.7479 139.406 39.9852 139.406 39.9917C138.642 42.6217 138.37 45.2495 135.651 44.9207C133.877 44.6965 134.19 42.2907 134.263 41.6724C134.986 36.086 135.744 30.4973 136.434 24.8585C136.944 20.7307 130.996 20.9615 130.867 22.3418C130.955 23.0624 130.972 23.7917 130.912 24.5167C130.489 28.2113 130.064 31.6098 129.647 35.2891C128.996 39.4169 126.973 40.1659 124.002 39.8371C123.512 39.8045 123.026 39.7087 122.56 39.5476C123.527 37.1789 124.153 34.6817 124.418 32.1323C125.247 24.6844 121.744 20.8592 117.866 20.5174C114.437 20.2147 111.502 22.431 111.131 27.839C111.006 30.223 111.438 32.6004 112.391 34.784C113.345 36.9677 114.793 38.8966 116.621 40.4119C115.67 41.7269 114.431 42.6064 112.709 42.4693C109.448 42.1993 108.073 38.8074 108.341 34.4901C108.993 24.2228 109.644 13.8445 110.328 3.35946C110.583 -0.380833 104.364 -0.583305 104.364 0.729499C104.521 1.59599 104.579 2.47773 104.54 3.35946C104.411 12.5622 103.744 21.6516 103.237 30.6715C102.937 35.7986 100.544 41.6289 97.7858 41.5244C95.986 41.4656 96.0636 39.0142 96.0766 38.4155C96.219 33.8283 96.3615 29.2389 96.4996 24.6517C96.5967 21.595 95.6191 17.8743 90.8541 17.7829C87.5544 17.7306 84.9864 20.452 83.1865 23.9812C83.0419 20.9898 81.7967 17.711 77.4159 17.7698C74.1551 17.8155 71.6388 20.6893 69.8972 24.3426C69.8972 23.4151 69.839 22.4833 69.8066 21.5493C69.703 18.7757 64.31 18.2619 64.1007 20.1037C64.2215 20.7547 64.3014 21.4143 64.3359 22.0762C64.5129 25.9536 64.6877 28.5379 64.8647 32.4088C65.2099 37.181 62.0354 41.9337 56.6878 42.2167C53.114 42.4083 51.1329 40.684 49.9978 38.5026C56.5497 36.1491 59.8817 30.162 59.6681 25.2243C59.4846 21.2206 56.8777 18.5863 52.7817 18.8344C47.1427 19.1697 42.1856 25.9732 43.0014 34.3922C43.7632 42.6609 50.0108 46.9803 56.1655 46.6646C57.9179 46.5971 59.6357 46.1464 61.196 45.3387C62.7562 44.5332 64.1244 43.3924 65.2013 41.9968C65.2013 42.2145 65.2531 42.9178 65.2596 43.1333C65.3696 45.5847 67.2946 45.9657 68.6564 45.92C70.6116 45.8482 70.508 44.2632 70.4691 43.0027L70.1562 33.3145C70.1562 27.5037 74.3299 22.2133 76.2915 22.185C77.5238 22.185 77.6878 23.8941 77.7202 25.958C77.7979 31.5662 77.8734 37.1723 77.9489 42.7719C77.9878 45.2233 79.9041 45.6653 81.2615 45.6588C83.2167 45.6588 83.1714 44.0607 83.1714 42.8002C83.1714 39.5737 83.2491 36.3254 83.2491 33.0924C83.111 27.9 87.6882 22.135 89.665 22.1741C90.8973 22.1741 91.0073 23.9224 90.9685 25.9863C90.8908 30.4864 90.8088 34.9843 90.7268 39.4801C90.675 42.872 92.7402 45.7567 96.3593 45.8699C99.8618 45.994 102.449 43.7864 104.033 41.1042C104.741 42.7109 105.87 44.0934 107.298 45.0992C108.727 46.1051 110.404 46.6994 112.143 46.8148C116.056 47.137 118.663 45.3496 120.685 42.7196C121.747 43.1529 125.73 44.3699 128.868 42.0948C128.452 45.8547 130.504 48.6675 133.836 49.1008C137.617 49.6146 140.284 47.5158 141.575 44.322C143.01 40.7537 140.442 39.3799 139.529 39.7479ZM48.7116 33.7455C48.3534 30.9719 48.8691 23.5697 52.4148 23.3411C53.3536 23.2823 53.9794 24.1161 54.0701 25.5813C54.1974 27.4841 53.7722 29.3804 52.8464 31.0416C51.9206 32.7027 50.533 34.0569 48.854 34.9343C48.8411 34.5358 48.7375 34.1418 48.7116 33.7455ZM118.913 32.1236C118.792 33.6563 118.544 35.1759 118.171 36.6651C116.231 34.1919 115.279 31.0742 115.503 27.9305C115.661 26.0625 116.123 24.8281 117.055 24.9064C118.346 25.024 119.317 27.667 118.913 32.1236Z" fill="#FF9E18"/>
</svg>
