<svg width="304" height="123" viewBox="0 0 304 123" fill="none" xmlns="http://www.w3.org/2000/svg">
<g clip-path="url(#clip0_514_350)">
<path d="M32.0078 93.2894C32.1926 94.8189 32.2573 96.3576 32.2018 97.8917C32.4513 99.2624 43.7058 100.234 42.2227 91.7099C39.192 74.2675 36.6417 57.7692 34.0452 40.2133C31.4487 22.6574 38.3742 19.1807 47.2494 17.9462C56.6142 16.7253 64.9211 22.0583 65.9976 30.278C67.6331 43.1181 56.6188 49.2 46.4547 50.0124C45.6277 50.0578 44.8515 50.3982 44.2648 50.9701C41.9779 53.2849 43.7751 58.9175 48.8849 58.4091C56.3925 57.6557 74.6232 63.0568 76.6884 81.9244C77.7926 91.955 71.9713 106.002 53.6158 108.794C29.7208 112.615 16.3319 98.3955 12.5666 82.0333C8.96753 66.479 17.912 62.4395 17.6486 61.028C17.1866 58.4908 10.4044 54.1745 5.08668 59.3849C2.64267 61.7406 -2.15758 67.9632 1.10881 84.3662C6.4265 111.072 29.111 123.077 54.6553 119.596C76.9887 116.555 90.6133 101.001 88.5342 80.6807C86.871 65.0992 77.1873 56.4529 64.7224 52.5087C73.6576 48.8097 79.1416 41.298 77.7325 28.9935C76.1432 14.6738 62.1953 5.11063 45.4891 7.6841C23.4884 11.1653 19.6676 24.8542 22.8508 42.1468C25.937 59.217 28.9909 76.2645 32.0078 93.2894Z" fill="#FF9E18"/>
<path d="M245.584 118.752C207.03 115.956 168.341 115.497 129.731 117.381C116.079 118.203 109.255 118.752 95.6584 120.122C94.8868 120.177 94.1245 120.336 93.3992 120.59C92.9603 120.758 92.5352 120.967 92.1286 121.207C91.8607 121.366 91.6158 121.557 91.3894 121.77C91.237 121.938 91.0291 122.042 90.8027 122.07C90.6687 122.079 90.5347 122.051 90.4146 121.997C90.2945 121.938 90.1928 121.852 90.1189 121.743C89.8741 121.425 89.6754 121.076 89.5322 120.703C89.3474 120.259 89.1995 119.8 89.084 119.333C88.9593 118.838 88.8623 118.334 88.8068 117.826C88.4649 115.865 88.853 113.85 89.911 112.152C90.3268 111.472 90.8905 110.891 91.565 110.455C92.2395 110.019 93.0065 109.738 93.8057 109.633C107.583 108.263 114.49 107.645 128.327 106.81C167.801 104.854 207.362 105.313 246.776 108.181C252.556 108.676 255.429 108.948 261.195 109.552C270.717 110.523 275.476 111.086 284.924 112.293C285.7 112.416 286.485 112.447 287.271 112.375C287.747 112.316 288.213 112.216 288.666 112.075C288.966 111.989 289.253 111.862 289.516 111.703C289.71 111.581 289.946 111.531 290.172 111.567C290.311 111.59 290.44 111.649 290.546 111.735C290.653 111.821 290.736 111.935 290.787 112.062C290.934 112.434 291.032 112.82 291.078 113.214C291.142 113.709 291.17 114.208 291.161 114.708C291.147 115.221 291.105 115.733 291.036 116.242C290.865 118.225 289.969 120.082 288.509 121.461C287.927 122.001 287.229 122.405 286.462 122.646C285.7 122.882 284.891 122.946 284.097 122.832C273.013 121.366 267.46 120.722 256.349 119.637C252.089 119.328 249.927 119.119 245.584 118.752Z" fill="#FF9E18"/>
<path d="M296.645 30.6411C296.645 32.1752 296.183 33.673 295.314 34.9483C294.446 36.2237 293.212 37.2177 291.771 37.8032C290.329 38.3887 288.74 38.543 287.206 38.2435C285.672 37.9439 284.268 37.2041 283.159 36.1193C282.055 35.0346 281.302 33.6548 280.997 32.1479C280.692 30.6456 280.849 29.0843 281.445 27.6682C282.041 26.2521 283.057 25.0403 284.355 24.187C285.654 23.3337 287.183 22.8798 288.745 22.8798C290.842 22.8798 292.852 23.6968 294.33 25.1537C295.813 26.6107 296.645 28.585 296.645 30.6411Z" fill="#FF9E18"/>
<path d="M298.71 82.8639C298.71 82.8639 298.447 83.3586 298.447 83.3722C296.811 88.855 296.229 94.3333 290.408 93.6479C286.61 93.1804 287.28 88.1651 287.437 86.8761C288.985 75.2297 290.606 63.5787 292.085 51.8234C293.175 43.2179 280.442 43.699 280.165 46.5766C280.354 48.0789 280.391 49.5994 280.262 51.1108C279.357 58.8131 278.446 65.898 277.555 73.5685C276.159 82.174 271.83 83.7353 265.469 83.05C264.42 82.9819 263.38 82.7822 262.382 82.4463C264.452 77.5081 265.792 72.3022 266.36 66.9873C268.134 51.4603 260.636 43.4857 252.334 42.7731C244.993 42.1422 238.709 46.7627 237.915 58.0369C237.647 63.0069 238.571 67.9632 240.613 72.5155C242.655 77.0679 245.755 81.0892 249.668 84.2482C247.631 86.9896 244.979 88.8232 241.292 88.5373C234.311 87.9745 231.368 80.9031 231.941 71.9028C233.336 50.4981 234.731 28.8619 236.196 7.00328C236.741 -0.794282 223.426 -1.21639 223.426 1.52048C223.763 3.3269 223.888 5.16509 223.805 7.00328C223.528 26.1886 222.1 45.1378 221.014 63.9418C220.372 74.6306 215.249 86.7853 209.344 86.5675C205.491 86.4449 205.657 81.3343 205.685 80.0862C205.99 70.523 206.295 60.9553 206.591 51.3922C206.799 45.0198 204.706 37.2631 194.505 37.0725C187.44 36.9635 181.943 42.637 178.089 49.9943C177.78 43.758 175.114 36.9227 165.735 37.0452C158.755 37.1406 153.368 43.1317 149.639 50.7477C149.639 48.8142 149.514 46.8716 149.445 44.9245C149.223 39.1421 137.678 38.071 137.23 41.9108C137.488 43.2679 137.659 44.6431 137.733 46.0229C138.112 54.1064 138.486 59.4939 138.865 67.5638C139.604 77.5127 132.808 87.4208 121.36 88.0108C113.709 88.4102 109.468 84.8155 107.038 80.2677C121.064 75.3613 128.197 62.8798 127.74 52.5859C127.347 44.2392 121.766 38.7473 112.997 39.2647C100.925 39.9637 90.3129 54.1472 92.0593 71.6986C93.6902 88.9367 107.065 97.9416 120.242 97.2835C123.993 97.1428 127.671 96.2032 131.011 94.5194C134.351 92.84 137.28 90.4617 139.586 87.5524C139.586 88.0063 139.697 89.4723 139.711 89.9216C139.946 95.0322 144.067 95.8265 146.983 95.7312C151.168 95.5814 150.947 92.2772 150.863 89.6493L150.194 69.4519C150.194 57.338 159.129 46.3088 163.328 46.2498C165.966 46.2498 166.318 49.8127 166.387 54.1155C166.553 65.8073 166.715 77.4945 166.877 89.1682C166.96 94.2788 171.062 95.2002 173.968 95.1866C178.154 95.1866 178.057 91.8551 178.057 89.2272C178.057 82.5008 178.223 75.729 178.223 68.9889C177.928 58.164 187.727 46.1454 191.959 46.2271C194.597 46.2271 194.833 49.8717 194.749 54.1745C194.583 63.556 194.408 72.9331 194.232 82.3056C194.121 89.377 198.542 95.3908 206.29 95.6268C213.789 95.8855 219.328 91.2832 222.719 85.6915C224.235 89.0411 226.651 91.9232 229.709 94.0201C232.768 96.117 236.358 97.3561 240.081 97.5966C248.458 98.2684 254.039 94.5421 258.368 89.0593C260.641 89.9625 269.169 92.4996 275.887 87.7566C274.995 95.5951 279.389 101.459 286.522 102.362C294.617 103.433 300.327 99.0581 303.09 92.3998C306.162 84.9608 300.664 82.0968 298.71 82.8639ZM104.284 70.3506C103.517 64.5682 104.621 49.1365 112.212 48.6599C114.222 48.5373 115.562 50.2757 115.756 53.3303C116.028 57.2971 115.118 61.2504 113.136 64.7134C111.154 68.1765 108.183 70.9996 104.589 72.8287C104.561 71.9981 104.339 71.1766 104.284 70.3506ZM254.575 66.9692C254.316 70.1645 253.785 73.3325 252.985 76.437C248.832 71.281 246.794 64.7815 247.275 58.2276C247.612 54.3333 248.601 51.7598 250.597 51.9232C253.359 52.1683 255.439 57.6784 254.575 66.9692Z" fill="#FF9E18"/>
</g>
<defs>
<clipPath id="clip0_514_350">
<rect width="304" height="123" fill="white"/>
</clipPath>
</defs>
</svg>
