<svg width="182" height="73" viewBox="0 0 182 73" fill="none" xmlns="http://www.w3.org/2000/svg">
<g clip-path="url(#clip0_554_255)">
<path d="M19.1625 55.3669C19.2731 56.2747 19.3118 57.1878 19.2787 58.0983C19.428 58.9118 26.1659 59.4883 25.278 54.4295C23.4636 44.0775 21.9367 34.2858 20.3823 23.8664C18.8278 13.4471 22.974 11.3837 28.2874 10.651C33.894 9.92639 38.8672 13.0915 39.5116 17.9699C40.4908 25.5904 33.8967 29.2 27.8116 29.6822C27.3165 29.7091 26.8518 29.9111 26.5006 30.2506C25.1314 31.6244 26.2074 34.9673 29.2665 34.6656C33.7612 34.2184 44.6757 37.424 45.9121 48.6218C46.5731 54.5749 43.088 62.912 32.0989 64.5686C17.7933 66.8368 9.77759 58.3973 7.52334 48.6864C5.36866 39.455 10.7235 37.0576 10.5659 36.2199C10.2893 34.7141 6.22887 32.1523 3.04525 35.2447C1.58206 36.6428 -1.29177 40.3359 0.663762 50.071C3.84738 65.9209 17.4282 73.0458 32.7212 70.9797C46.0919 69.1749 54.2487 59.9435 53.004 47.8837C52.0082 38.6361 46.2108 33.5046 38.7482 31.1637C44.0976 28.9683 47.3808 24.5102 46.5372 17.2075C45.5857 8.70882 37.2353 3.03314 27.2336 4.56048C14.0621 6.62657 11.7746 14.7509 13.6804 25.014C15.528 35.1451 17.3563 45.2627 19.1625 55.3669Z" fill="#FF9E18"/>
<path d="M147.027 70.4787C123.945 68.8193 100.783 68.5473 77.6681 69.6652C69.4947 70.1527 65.4093 70.4787 57.2691 71.2922C56.8072 71.3245 56.3508 71.4188 55.9166 71.5696C55.6538 71.6693 55.3993 71.7932 55.1559 71.936C54.9955 72.0303 54.8489 72.1434 54.7134 72.27C54.6221 72.3697 54.4976 72.4316 54.3621 72.4478C54.2819 72.4532 54.2017 72.437 54.1298 72.4047C54.0579 72.3697 53.997 72.3185 53.9527 72.2538C53.8061 72.0653 53.6872 71.8579 53.6015 71.637C53.4908 71.373 53.4023 71.1009 53.3332 70.8235C53.2585 70.5299 53.2004 70.2309 53.1672 69.9292C52.9625 68.7655 53.1949 67.5695 53.8283 66.562C54.0772 66.1579 54.4147 65.8131 54.8185 65.5545C55.2223 65.2959 55.6815 65.1289 56.16 65.067C64.4081 64.2535 68.5432 63.8871 76.8272 63.3915C100.46 62.2305 124.144 62.5025 147.741 64.205C151.201 64.4986 152.921 64.6602 156.373 65.0185C162.074 65.5949 164.923 65.929 170.579 66.6455C171.044 66.7182 171.514 66.7371 171.984 66.694C172.269 66.659 172.549 66.5997 172.82 66.5162C173 66.465 173.171 66.3896 173.329 66.2953C173.445 66.2226 173.586 66.193 173.721 66.2145C173.804 66.228 173.882 66.263 173.946 66.3142C174.009 66.3654 174.059 66.4327 174.089 66.5081C174.178 66.729 174.236 66.958 174.264 67.1923C174.302 67.4859 174.319 67.7823 174.313 68.0786C174.305 68.383 174.28 68.6873 174.239 68.989C174.136 70.1662 173.6 71.2679 172.726 72.0868C172.377 72.4074 171.96 72.6471 171.5 72.7899C171.044 72.93 170.56 72.9677 170.084 72.9003C163.449 72.0303 160.124 71.6477 153.472 71.0039C150.922 70.8208 149.627 70.6969 147.027 70.4787Z" fill="#FF9E18"/>
<path d="M177.597 18.1854C177.597 19.0958 177.32 19.9848 176.8 20.7417C176.28 21.4986 175.542 22.0886 174.679 22.4361C173.816 22.7835 172.864 22.8751 171.946 22.6973C171.027 22.5196 170.187 22.0805 169.523 21.4367C168.862 20.7929 168.411 19.974 168.228 19.0797C168.046 18.188 168.14 17.2614 168.497 16.421C168.853 15.5805 169.462 14.8613 170.239 14.3549C171.016 13.8485 171.932 13.5791 172.867 13.5791C174.123 13.5791 175.326 14.0639 176.211 14.9286C177.099 15.7933 177.597 16.9651 177.597 18.1854Z" fill="#FF9E18"/>
<path d="M178.833 49.1794C178.833 49.1794 178.675 49.473 178.675 49.4811C177.696 52.7351 177.348 55.9864 173.863 55.5797C171.589 55.3022 171.99 52.3256 172.084 51.5606C173.011 44.6485 173.981 37.7337 174.867 30.757C175.519 25.6497 167.896 25.9352 167.73 27.643C167.844 28.5347 167.866 29.437 167.788 30.3341C167.246 34.9053 166.701 39.1102 166.168 43.6626C165.332 48.7699 162.741 49.6966 158.932 49.2898C158.304 49.2494 157.682 49.1309 157.084 48.9315C158.323 46.0008 159.126 42.9111 159.466 39.7567C160.528 30.5415 156.039 25.8086 151.068 25.3857C146.673 25.0113 142.911 27.7535 142.436 34.4447C142.275 37.3943 142.828 40.3359 144.051 43.0377C145.274 45.7395 147.13 48.1261 149.472 50.001C148.253 51.628 146.665 52.7162 144.458 52.5465C140.278 52.2125 138.516 48.0157 138.859 42.674C139.695 29.9704 140.53 17.1294 141.407 4.15642C141.733 -0.471398 133.762 -0.721915 133.762 0.902403C133.964 1.97451 134.038 3.06547 133.988 4.15642C133.823 15.5428 132.968 26.7891 132.318 37.9492C131.933 44.293 128.866 51.5068 125.331 51.3775C123.024 51.3047 123.124 48.2716 123.14 47.5308C123.323 41.8551 123.506 36.1768 123.683 30.5011C123.807 26.7191 122.554 22.1155 116.447 22.0024C112.218 21.9377 108.926 25.3049 106.619 29.6714C106.434 25.9702 104.838 21.9135 99.2232 21.9862C95.0438 22.0428 91.8187 25.5985 89.5866 30.1186C89.5866 28.971 89.5119 27.8181 89.4704 26.6625C89.3376 23.2307 82.4255 22.595 82.1572 24.8739C82.3121 25.6793 82.4144 26.4955 82.4587 27.3144C82.6855 32.1119 82.9096 35.3094 83.1364 40.0988C83.5789 46.0035 79.5102 51.8839 72.6561 52.2341C68.0757 52.4711 65.5366 50.3377 64.0817 47.6386C72.4791 44.7266 76.7498 37.3189 76.4759 31.2095C76.2408 26.2558 72.8996 22.9963 67.6498 23.3034C60.4223 23.7183 54.0689 32.1362 55.1144 42.5528C56.0908 52.7836 64.0983 58.1279 71.9868 57.7373C74.2327 57.6538 76.4344 57.0962 78.4342 56.0969C80.434 55.1002 82.1876 53.6887 83.5679 51.962C83.5679 52.2314 83.6342 53.1014 83.6425 53.3681C83.7836 56.4013 86.2508 56.8727 87.9962 56.8161C90.5021 56.7272 90.3693 54.7662 90.3196 53.2065L89.9185 41.2194C89.9185 34.0299 95.2678 27.4841 97.7821 27.4491C99.3615 27.4491 99.5717 29.5637 99.6132 32.1173C99.7127 39.0564 99.8096 45.9927 99.9064 52.921C99.9562 55.9541 102.412 56.5009 104.152 56.4928C106.658 56.4928 106.6 54.5156 106.6 52.956C106.6 48.9639 106.7 44.9448 106.7 40.9446C106.523 34.5201 112.389 27.3871 114.923 27.4356C116.502 27.4356 116.643 29.5987 116.593 32.1523C116.494 37.7203 116.389 43.2855 116.284 48.848C116.217 53.0449 118.864 56.6141 123.503 56.7541C127.992 56.9077 131.308 54.1762 133.338 50.8576C134.246 52.8455 135.692 54.556 137.523 55.8006C139.354 57.0451 141.504 57.7804 143.733 57.9232C148.748 58.3219 152.089 56.1103 154.681 52.8563C156.041 53.3924 161.147 54.8982 165.169 52.0832C164.635 56.7353 167.266 60.2156 171.536 60.7516C176.382 61.3873 179.801 58.7906 181.455 54.8389C183.294 50.4239 180.003 48.7241 178.833 49.1794ZM62.4332 41.7528C61.974 38.321 62.6351 29.1623 67.1796 28.8794C68.3827 28.8067 69.1849 29.8384 69.301 31.6513C69.4642 34.0056 68.9193 36.3518 67.7327 38.4072C66.5461 40.4625 64.7676 42.138 62.6157 43.2235C62.5991 42.7306 62.4664 42.243 62.4332 41.7528ZM152.41 39.7459C152.255 41.6423 151.937 43.5225 151.458 45.3651C148.972 42.305 147.752 38.4476 148.04 34.5578C148.241 32.2466 148.833 30.7193 150.028 30.8162C151.682 30.9617 152.927 34.2319 152.41 39.7459Z" fill="#FF9E18"/>
</g>
<defs>
<clipPath id="clip0_554_255">
<rect width="182" height="73" fill="white"/>
</clipPath>
</defs>
</svg>
