<svg width="129" height="55" viewBox="0 0 129 55" fill="none" xmlns="http://www.w3.org/2000/svg">
<path d="M14.401 41.7198C14.4794 42.4038 14.5069 43.0918 14.4833 43.7778C14.5892 44.3907 19.365 44.825 18.7356 41.0136C17.4496 33.2141 16.3674 25.8368 15.2656 17.9866C14.1638 10.1364 17.1026 8.58182 20.8686 8.02979C24.8426 7.48385 28.3675 9.86854 28.8243 13.544C29.5183 19.2855 24.8445 22.0051 20.5314 22.3684C20.1805 22.3886 19.8512 22.5409 19.6022 22.7966C18.6317 23.8316 19.3944 26.3503 21.5627 26.123C24.7484 25.7861 32.4845 28.2012 33.3609 36.6379C33.8294 41.1231 31.3592 47.4045 23.5702 48.6527C13.4306 50.3615 7.74907 44.003 6.15128 36.6866C4.62406 29.7315 8.41956 27.9252 8.30781 27.294C8.11176 26.1595 5.23377 24.2294 2.97725 26.5593C1.94015 27.6126 -0.0967955 30.3951 1.28927 37.7298C3.54579 49.6715 13.1718 55.0396 24.0113 53.4829C33.4883 52.1231 39.2698 45.168 38.3876 36.0818C37.6818 29.1145 33.5726 25.2482 28.2832 23.4846C32.0748 21.8305 34.4019 18.4717 33.8039 12.9696C33.1295 6.56651 27.2108 2.29031 20.1217 3.44105C10.7859 4.99769 9.16454 11.1187 10.5153 18.8512C11.8249 26.4842 13.1208 34.1071 14.401 41.7198Z" fill="#FF9E18"/>
<path d="M105.03 53.1057C88.67 51.8555 72.2528 51.6505 55.8691 52.4928C50.0758 52.8601 47.1802 53.1057 41.4105 53.7186C41.0831 53.7429 40.7596 53.814 40.4518 53.9276C40.2656 54.0027 40.0852 54.0961 39.9127 54.2036C39.799 54.2747 39.695 54.3599 39.599 54.4553C39.5343 54.5304 39.4461 54.5771 39.35 54.5893C39.2931 54.5933 39.2363 54.5811 39.1853 54.5568C39.1344 54.5304 39.0912 54.4918 39.0599 54.4431C38.9559 54.3011 38.8716 54.1448 38.8109 53.9784C38.7324 53.7795 38.6697 53.5745 38.6207 53.3655C38.5678 53.1442 38.5266 52.919 38.5031 52.6916C38.358 51.8149 38.5227 50.9138 38.9716 50.1547C39.1481 49.8503 39.3873 49.5905 39.6735 49.3957C39.9597 49.2009 40.2852 49.075 40.6243 49.0284C46.4705 48.4154 49.4014 48.1394 55.2731 47.766C72.0235 46.8913 88.8111 47.0963 105.536 48.3789C107.989 48.6001 109.208 48.7219 111.655 48.9918C115.695 49.4261 117.715 49.6778 121.724 50.2177C122.053 50.2725 122.386 50.2867 122.72 50.2542C122.922 50.2278 123.12 50.1832 123.312 50.1202C123.439 50.0817 123.561 50.0249 123.672 49.9538C123.755 49.899 123.855 49.8767 123.951 49.8929C124.01 49.9031 124.065 49.9295 124.11 49.968C124.155 50.0066 124.19 50.0573 124.212 50.1142C124.274 50.2806 124.316 50.4531 124.335 50.6297C124.363 50.8509 124.374 51.0741 124.37 51.2974C124.365 51.5267 124.347 51.756 124.317 51.9833C124.245 52.8702 123.865 53.7003 123.245 54.3173C122.998 54.5588 122.702 54.7394 122.377 54.847C122.053 54.9525 121.71 54.9809 121.373 54.9302C116.67 54.2747 114.313 53.9865 109.598 53.5014C107.791 53.3634 106.873 53.2701 105.03 53.1057Z" fill="#FF9E18"/>
<path d="M126.697 13.7063C126.697 14.3923 126.501 15.062 126.133 15.6323C125.764 16.2026 125.241 16.6471 124.629 16.9089C124.018 17.1707 123.343 17.2397 122.692 17.1058C122.041 16.9718 121.445 16.641 120.975 16.156C120.506 15.6709 120.187 15.0539 120.057 14.3801C119.928 13.7083 119.995 13.0102 120.247 12.377C120.5 11.7438 120.932 11.2019 121.483 10.8203C122.033 10.4388 122.682 10.2358 123.345 10.2358C124.235 10.2358 125.088 10.6012 125.715 11.2526C126.345 11.9041 126.697 12.7869 126.697 13.7063Z" fill="#FF9E18"/>
<path d="M127.574 37.0581C127.574 37.0581 127.462 37.2793 127.462 37.2854C126.768 39.7371 126.521 42.1867 124.051 41.8802C122.439 41.6712 122.724 39.4286 122.79 38.8522C123.447 33.6445 124.135 28.4347 124.762 23.1782C125.225 19.3302 119.822 19.5454 119.704 20.8321C119.785 21.5039 119.8 22.1838 119.746 22.8596C119.361 26.3037 118.975 29.4718 118.597 32.9016C118.005 36.7496 116.168 37.4478 113.468 37.1413C113.023 37.1109 112.582 37.0216 112.159 36.8714C113.037 34.6633 113.605 32.3354 113.846 29.9588C114.599 23.0159 111.417 19.45 107.894 19.1314C104.779 18.8493 102.113 20.9153 101.776 25.9566C101.662 28.179 102.054 30.3952 102.921 32.4308C103.787 34.4664 105.103 36.2646 106.763 37.6771C105.899 38.9029 104.773 39.7229 103.209 39.595C100.247 39.3433 98.9978 36.1814 99.2409 32.1568C99.8329 22.5856 100.425 12.9109 101.046 3.13671C101.278 -0.350007 95.6277 -0.538752 95.6277 0.685048C95.7708 1.4928 95.8237 2.31475 95.7885 3.13671C95.6708 11.7155 95.065 20.1887 94.6043 28.597C94.3318 33.3766 92.1576 38.8116 89.6521 38.7142C88.0171 38.6594 88.0877 36.3742 88.0994 35.816C88.2288 31.5398 88.3582 27.2616 88.4837 22.9854C88.5719 20.136 87.6838 16.6675 83.3551 16.5823C80.3575 16.5336 78.0245 19.0705 76.3894 22.3603C76.2581 19.5718 75.1269 16.5153 71.1471 16.5701C68.1848 16.6127 65.8989 19.2917 64.3168 22.6972C64.3168 21.8326 64.2638 20.964 64.2344 20.0933C64.1403 17.5077 59.2411 17.0288 59.0509 18.7457C59.1607 19.3526 59.2332 19.9675 59.2646 20.5845C59.4254 24.1991 59.5842 26.6081 59.7449 30.2166C60.0586 34.6653 57.1747 39.0957 52.3166 39.3596C49.0701 39.5382 47.2703 37.9308 46.2391 35.8972C52.1912 33.7033 55.2182 28.1221 55.0241 23.5192C54.8574 19.7869 52.4892 17.3312 48.7682 17.5625C43.6454 17.8751 39.1422 24.2173 39.8832 32.0655C40.5753 39.7736 46.2509 43.8002 51.8422 43.5059C53.4341 43.443 54.9947 43.0229 56.4121 42.2699C57.8295 41.519 59.0725 40.4555 60.0508 39.1546C60.0508 39.3576 60.0978 40.0131 60.1037 40.214C60.2037 42.4992 61.9524 42.8544 63.1895 42.8118C64.9657 42.7448 64.8716 41.2673 64.8363 40.0922L64.552 31.0609C64.552 25.6441 68.3436 20.7124 70.1257 20.686C71.2451 20.686 71.3941 22.2791 71.4235 24.2031C71.4941 29.4312 71.5627 34.6572 71.6313 39.8771C71.6666 42.1623 73.4075 42.5743 74.6407 42.5683C76.4169 42.5683 76.3757 41.0786 76.3757 39.9035C76.3757 36.8957 76.4463 33.8677 76.4463 30.8539C76.3208 26.0135 80.479 20.6393 82.2748 20.6758C83.3943 20.6758 83.4942 22.3055 83.459 24.2295C83.3884 28.4245 83.3139 32.6175 83.2394 36.8085C83.1923 39.9705 85.0685 42.6596 88.3563 42.7651C91.5381 42.8808 93.8887 40.8229 95.3277 38.3225C95.9708 39.8203 96.9961 41.109 98.294 42.0467C99.5918 42.9843 101.115 43.5384 102.695 43.6459C106.25 43.9463 108.618 42.2801 110.455 39.8284C111.419 40.2323 115.038 41.3668 117.889 39.2459C117.511 42.7509 119.375 45.373 122.402 45.7769C125.837 46.2559 128.26 44.2994 129.432 41.3221C130.736 37.9957 128.403 36.7151 127.574 37.0581ZM45.0707 31.4627C44.7452 28.8771 45.2138 21.9767 48.4349 21.7636C49.2877 21.7088 49.8562 22.4862 49.9386 23.852C50.0542 25.6258 49.668 27.3935 48.827 28.9421C47.9859 30.4906 46.7253 31.7529 45.2001 32.5708C45.1883 32.1994 45.0942 31.8321 45.0707 31.4627ZM108.845 29.9507C108.736 31.3795 108.51 32.7961 108.171 34.1843C106.408 31.8788 105.544 28.9725 105.748 26.0419C105.891 24.3005 106.31 23.1498 107.157 23.2229C108.33 23.3325 109.212 25.7963 108.845 29.9507Z" fill="#FF9E18"/>
</svg>
