<svg width="21" height="18" viewBox="0 0 21 18" fill="none" xmlns="http://www.w3.org/2000/svg">
<path d="M18.8334 4.83317L10.5 10.0415L2.16671 4.83317V2.74984L10.5 7.95817L18.8334 2.74984M18.8334 0.666504H2.16671C1.01046 0.666504 0.083374 1.59359 0.083374 2.74984V15.2498C0.083374 15.8024 0.302867 16.3323 0.693568 16.723C1.08427 17.1137 1.61417 17.3332 2.16671 17.3332H18.8334C19.3859 17.3332 19.9158 17.1137 20.3065 16.723C20.6972 16.3323 20.9167 15.8024 20.9167 15.2498V2.74984C20.9167 2.1973 20.6972 1.6674 20.3065 1.2767C19.9158 0.885997 19.3859 0.666504 18.8334 0.666504Z" fill="#FCFCFC"/>
</svg>
