<svg width="60" height="56" viewBox="0 0 60 56" fill="none" xmlns="http://www.w3.org/2000/svg">
<path d="M59.2253 44.7262L49.3712 27.6576C49.1059 27.1982 48.4424 27.2143 48.1925 27.6822C45.3351 33.0308 40.3357 36.7591 34.5832 38.0596C34.1424 38.1593 33.9263 38.6596 34.1522 39.051L42.8785 54.1654C43.74 55.6576 45.9484 55.4502 46.527 53.8379L49.2336 46.2969L57.1176 47.7223C58.8056 48.0272 60.0835 46.2127 59.2253 44.7262Z" fill="#FF9E18"/>
<path d="M25.4167 38.0599C19.6623 36.7588 14.6635 33.0286 11.8074 27.6825C11.5575 27.2145 10.894 27.1985 10.6287 27.6578L0.774467 44.7264C-0.0829908 46.2116 1.193 48.0275 2.88198 47.7225L10.766 46.2971L13.4726 53.8381C14.0512 55.4498 16.2594 55.6581 17.121 54.1656L25.8473 39.0512C26.0734 38.6597 25.8575 38.1595 25.4167 38.0599Z" fill="#FF9E18"/>
<path d="M46.6882 24.5405C48.8748 19.0174 48.1823 12.7802 44.8355 7.85574C37.7165 -2.61985 22.282 -2.61697 15.1654 7.85471C11.8181 12.7802 11.1249 19.0177 13.3115 24.5405C19.3 39.6628 40.728 39.592 46.6882 24.5405ZM39.8628 17.4851L36.3959 20.8643L37.2143 25.636C37.4989 27.2957 35.7506 28.5352 34.285 27.7643L29.9998 25.5115L25.7145 27.7644C24.2366 28.5414 22.5028 27.2831 22.7853 25.6361L23.6036 20.8644L20.1367 17.4852C18.941 16.3195 19.6021 14.2819 21.2555 14.0417L26.0466 13.3455L28.1892 9.00405C28.9282 7.50647 31.0705 7.50566 31.8099 9.00405L33.9525 13.3455L38.7436 14.0417C40.3964 14.2817 41.0592 16.3188 39.8628 17.4851Z" fill="#FF9E18"/>
</svg>
