<svg width="50" height="50" viewBox="0 0 50 50" fill="none" xmlns="http://www.w3.org/2000/svg">
<path d="M9.62079 0.649568C9.92896 0.799707 10.189 1.03498 10.371 1.3283C10.553 1.62162 10.6496 1.96106 10.6495 2.30754C10.6495 4.34321 11.4047 5.51556 12.3512 6.94299L12.4214 7.046C13.225 8.25759 14.2804 9.84444 14.2804 12.118C14.2804 14.4382 13.1258 16.4837 11.366 17.6977C11.8291 18.0901 12.2374 18.5749 12.5908 19.1521C13.743 21.0406 14.2804 23.9274 14.2804 28.0723C14.2804 32.2712 13.7236 37.3138 12.8159 41.341C12.3657 43.3423 11.8066 45.1891 11.1409 46.5749C10.8281 47.2651 10.4117 47.9022 9.90642 48.4634C9.40778 48.9809 8.64046 49.5327 7.62383 49.5327C6.60719 49.5327 5.83987 48.9809 5.34366 48.4634C4.83842 47.9022 4.422 47.2651 4.10917 46.5749C3.4411 45.1867 2.88195 43.3423 2.43172 41.3385C1.4867 36.9797 0.995861 32.5325 0.967285 28.0698C0.967285 23.9249 1.50465 21.0406 2.65684 19.1521C2.98415 18.6029 3.39788 18.1116 3.88164 17.6977C2.98351 17.0791 2.2484 16.2472 1.74042 15.2747C1.23243 14.3021 0.967004 13.2184 0.967285 12.118C0.967285 11.2154 0.967285 9.66294 1.89436 7.65915C2.80207 5.69706 4.52793 3.4431 7.69887 0.870304C7.96611 0.653699 8.28835 0.518046 8.6284 0.478991C8.96845 0.439935 9.31247 0.499067 9.62079 0.649568ZM20.3318 32.1485C19.0497 31.9293 17.8024 31.5367 16.6235 30.9811C16.6751 29.9821 16.7009 29.0125 16.7009 28.0723C16.7009 27.0765 16.6703 26.1249 16.6089 25.2174C17.6813 26.1127 18.9472 26.7773 20.3318 27.1378V21.3153C20.3318 20.3396 20.7143 19.4039 21.3952 18.7139C22.0761 18.024 22.9997 17.6364 23.9626 17.6364H32.4346C32.4348 15.7651 31.9068 13.9327 30.9128 12.3554C29.9189 10.7782 28.5005 9.5219 26.8249 8.73477C25.1493 7.94764 23.2865 7.6625 21.4562 7.91301C19.626 8.16351 17.9046 8.9392 16.4952 10.1486C16.0764 8.15213 15.1034 6.69037 14.4813 5.75592L14.3845 5.60876C16.5592 4.05539 19.1134 3.13723 21.7681 2.95451C24.4228 2.77179 27.076 3.33154 29.4381 4.57266C31.8002 5.81377 33.7804 7.68855 35.1626 9.99233C36.5447 12.2961 37.2757 14.9404 37.2757 17.6364H45.7477C46.7106 17.6364 47.6341 18.024 48.3151 18.7139C48.996 19.4039 49.3785 20.3396 49.3785 21.3153V43.3889C49.3785 44.3646 48.996 45.3004 48.3151 45.9903C47.6341 46.6802 46.7106 47.0678 45.7477 47.0678H23.9626C22.9997 47.0678 22.0761 46.6802 21.3952 45.9903C20.7143 45.3004 20.3318 44.3646 20.3318 43.3889V32.1485ZM25.1729 32.1485V42.1626H44.5374V22.5416H36.4503C35.5846 25.0155 34.0826 27.2103 32.0996 28.8992C30.1166 30.5881 27.7245 31.7099 25.1705 32.1485M31.1396 22.5416H25.1729V27.1378C26.419 26.812 27.5885 26.2377 28.613 25.4485C29.6375 24.6593 30.4964 23.6711 31.1396 22.5416Z" fill="#FF9E18"/>
</svg>
