<svg width="21" height="22" viewBox="0 0 21 22" fill="none" xmlns="http://www.w3.org/2000/svg">
<path d="M10.501 0.583496C16.2542 0.583496 20.9177 5.24704 20.9177 11.0002C20.9177 16.7533 16.2542 21.4168 10.501 21.4168C8.66018 21.4198 6.85172 20.9326 5.26145 20.0054L0.0885319 21.4168L1.49687 16.2418C0.568837 14.6511 0.0812898 12.8418 0.084365 11.0002C0.084365 5.24704 4.74791 0.583496 10.501 0.583496ZM6.95103 6.10433L6.7427 6.11266C6.60782 6.12088 6.47601 6.15631 6.3552 6.21683C6.2422 6.28082 6.13905 6.36081 6.04895 6.45433C5.92395 6.57204 5.85311 6.67412 5.77707 6.77308C5.39178 7.27402 5.18434 7.88903 5.18749 8.521C5.18957 9.03141 5.32291 9.52829 5.53124 9.99287C5.95728 10.9325 6.65832 11.9272 7.58332 12.8491C7.80624 13.071 8.02499 13.2939 8.26041 13.5012C9.40977 14.5131 10.7794 15.2429 12.2604 15.6325L12.8521 15.7231C13.0448 15.7335 13.2375 15.7189 13.4312 15.7095C13.7346 15.6939 14.0308 15.6117 14.2989 15.4689C14.4354 15.3986 14.5685 15.3222 14.6979 15.2397C14.6979 15.2397 14.7427 15.2106 14.8281 15.146C14.9687 15.0418 15.0552 14.9679 15.1719 14.846C15.2583 14.7564 15.3333 14.6512 15.3906 14.5314C15.4719 14.3616 15.5531 14.0377 15.5864 13.7679C15.6114 13.5616 15.6042 13.4491 15.601 13.3793C15.5969 13.2679 15.5042 13.1522 15.4031 13.1033L14.7969 12.8314C14.7969 12.8314 13.8906 12.4366 13.3364 12.1845C13.2785 12.1592 13.2163 12.1447 13.1531 12.1418C13.0818 12.1345 13.0098 12.1425 12.9419 12.1653C12.874 12.1882 12.8118 12.2253 12.7594 12.2741C12.7542 12.272 12.6844 12.3314 11.9312 13.2439C11.888 13.302 11.8285 13.3459 11.7602 13.37C11.6919 13.3941 11.618 13.3974 11.5479 13.3793C11.48 13.3611 11.4136 13.3382 11.3489 13.3106C11.2198 13.2564 11.175 13.2356 11.0864 13.1981C10.4886 12.9372 9.93508 12.5847 9.44582 12.1533C9.31457 12.0387 9.1927 11.9137 9.0677 11.7929C8.65789 11.4004 8.30074 10.9564 8.0052 10.472L7.94374 10.3731C7.8996 10.3066 7.86391 10.2349 7.83749 10.1595C7.79791 10.0064 7.90103 9.8835 7.90103 9.8835C7.90103 9.8835 8.15416 9.60641 8.27186 9.45641C8.38645 9.31058 8.48332 9.16891 8.54582 9.06787C8.66874 8.86995 8.70728 8.66683 8.6427 8.50954C8.35103 7.79704 8.04895 7.08766 7.73853 6.3835C7.67707 6.24391 7.49478 6.14391 7.32916 6.12412C7.27291 6.11787 7.21666 6.11162 7.16041 6.10745C7.02052 6.1005 6.88034 6.1019 6.74061 6.11162L6.95103 6.10433Z" fill="#FCFCFC"/>
</svg>
