<svg width="19" height="26" viewBox="0 0 19 26" fill="none" xmlns="http://www.w3.org/2000/svg">
<path d="M9.5002 0.5C4.25331 0.5 0 4.65152 0 9.77283C0 18.216 7.59073 24.2225 9.20168 25.4031C9.28782 25.4661 9.39256 25.5002 9.5002 25.5002C9.60784 25.5002 9.71258 25.4661 9.79872 25.4031C11.4093 24.2229 19 18.216 19 9.77283C19 4.65152 14.7467 0.5 9.5002 0.5ZM9.5002 15.4781C8.34403 15.4782 7.21379 15.1436 6.25243 14.5167C5.29107 13.8898 4.54177 12.9987 4.09928 11.9561C3.65679 10.9135 3.541 9.76624 3.76654 8.65941C3.99208 7.55259 4.54882 6.5359 5.36636 5.73793C6.1839 4.93995 7.22552 4.39653 8.35948 4.17639C9.49345 3.95625 10.6688 4.06927 11.737 4.50117C12.8051 4.93307 13.7181 5.66444 14.3604 6.60279C15.0027 7.54114 15.3454 8.64432 15.3454 9.77283C15.3454 10.5221 15.1943 11.264 14.9005 11.9562C14.6068 12.6484 14.1763 13.2774 13.6335 13.8072C13.0907 14.337 12.4463 14.7572 11.7371 15.0439C11.0279 15.3306 10.2678 15.4781 9.5002 15.4781Z" fill="#FCFCFC"/>
</svg>
