<svg width="61" height="39" viewBox="0 0 61 39" fill="none" xmlns="http://www.w3.org/2000/svg">
<path d="M2.96449 15.843L2.95542 15.968C2.92672 16.7641 3.17901 17.4839 3.66913 17.9915C4.39319 18.7434 5.55665 18.927 6.63443 18.441L9.68325 16.7857L12.627 18.3909L12.7312 18.4423C13.1387 18.6262 13.55 18.7198 13.9564 18.7198C14.6278 18.7198 15.2457 18.462 15.6974 17.9926C16.1875 17.485 16.4402 16.7663 16.41 15.9691L16.0056 12.5011L18.2405 10.2036L18.3644 10.06C18.9547 9.28333 19.1288 8.36136 18.8429 7.52875C18.5584 6.69635 17.8547 6.07588 16.9126 5.82488L13.4544 5.26204L12.0028 2.34119L11.9133 2.18494C11.3698 1.35103 10.5394 0.874512 9.63577 0.874512C8.78265 0.874512 7.97658 1.3096 7.42237 2.0697L5.59787 5.2601L2.5853 5.76532L2.4161 5.80352C1.48378 6.07048 0.790364 6.70088 0.511963 7.53393C0.234424 8.36848 0.412256 9.2885 0.997979 10.0609L3.35792 12.5009L2.96449 15.843ZM7.56157 8.06526L9.60621 4.46892L11.3914 8.06224L15.3806 8.70278L12.7588 11.3966L13.2064 15.1818L9.68109 13.2614L6.15683 15.1809L6.60465 11.3968L3.95055 8.67062L7.56157 8.06526Z" fill="#FF9E18"/>
<path d="M39.1677 10.0588C39.758 9.28226 39.9324 8.36008 39.6462 7.52747C39.3602 6.69507 38.6571 6.0746 37.7155 5.82382L34.2577 5.26076L32.8062 2.3397L32.7166 2.18367C32.1725 1.34975 31.3427 0.872803 30.4393 0.872803C29.5862 0.872803 28.7799 1.30853 28.2259 2.06842L26.4012 5.25882L23.3886 5.76383L23.2194 5.80202C22.2873 6.06899 21.5937 6.69895 21.3168 7.53243C21.0382 8.36699 21.2156 9.28701 21.8024 10.0596L24.1623 12.4996L23.7676 15.8437L23.7581 15.9676C23.7283 16.7637 23.9823 17.4835 24.4707 17.9921C25.195 18.744 26.3574 18.9279 27.436 18.4419L30.484 16.7866L33.4271 18.3916L33.5317 18.443C33.9388 18.6269 34.3507 18.7205 34.7567 18.7205C35.4283 18.7205 36.046 18.4626 36.4981 17.9932C36.9876 17.4856 37.2403 16.767 37.2103 15.9697L36.8063 12.5024L39.0424 10.2044L39.1677 10.0588ZM33.5617 11.3964L34.0098 15.1816L30.4846 13.2613L26.9614 15.1807L27.4082 11.3966L24.7547 8.67043L28.3655 8.06399L30.4097 4.46764L32.195 8.06096L36.1837 8.7015L33.5617 11.3964Z" fill="#FF9E18"/>
<path d="M58.551 5.82309L55.0923 5.26003L53.6419 2.33918L53.5532 2.18293C53.0091 1.3501 52.1793 0.87207 51.2759 0.87207C50.4228 0.87207 49.616 1.3078 49.0618 2.06769L47.2377 5.25809L44.2252 5.76309L44.056 5.80151C43.1234 6.06847 42.4305 6.69844 42.1525 7.53191C41.8745 8.36647 42.0517 9.28649 42.6389 10.0589L44.9989 12.4989L44.6031 15.843L44.594 15.9679C44.5657 16.7641 44.8176 17.4838 45.3084 17.9914C46.0324 18.7433 47.1948 18.927 48.2734 18.4409L51.3223 16.7856L54.2656 18.3909L54.3702 18.4422C54.7773 18.6261 55.189 18.7198 55.595 18.7198C56.2668 18.7198 56.8845 18.4619 57.3364 17.9925C57.8261 17.4849 58.0788 16.7662 58.0486 15.969L57.6448 12.5017L59.8796 10.2037L60.0034 10.0602C60.5926 9.28347 60.7681 8.36151 60.4819 7.52889C60.1968 6.69541 59.4926 6.07322 58.551 5.82309ZM54.3983 11.3965L54.8463 15.1817L51.3212 13.2614L47.7969 15.1808L48.243 11.3967L45.59 8.67056L49.1999 8.06412L51.2446 4.46777L53.0304 8.06109L57.0189 8.70163L54.3983 11.3965Z" fill="#FF9E18"/>
<path d="M19.0425 21.1335C18.1894 21.1335 17.3827 21.5697 16.8291 22.3281L15.0035 25.5189L11.991 26.0246L11.8218 26.063C10.889 26.3308 10.195 26.9614 9.91764 27.7953C9.64032 28.6292 9.81836 29.5499 10.4056 30.3215L12.7645 32.76L12.3691 36.1051L12.36 36.2288C12.3298 37.0255 12.5836 37.7446 13.0726 38.2522C13.7978 39.0037 14.9602 39.1891 16.0401 38.7016L19.087 37.0467L22.0307 38.6513L22.133 38.7016C22.5398 38.8867 22.9529 38.9795 23.3603 38.9795C24.0315 38.9795 24.6496 38.7218 25.1002 38.2533C25.5897 37.7457 25.8427 37.0275 25.8129 36.2298L25.4084 32.761L27.6445 30.4626L27.7673 30.3217C28.3571 29.5439 28.5324 28.6234 28.2477 27.7914C27.9633 26.9586 27.2586 26.3371 26.3159 26.0863L22.8577 25.5213L21.4068 22.6013L21.3172 22.4442C20.7749 21.6109 19.9459 21.1335 19.0425 21.1335ZM24.7862 28.9657L22.1645 31.6591L22.6121 35.444L19.0878 33.5244L15.5636 35.4421L16.0103 31.6591L13.3573 28.9325L16.9672 28.326L19.0114 24.729L20.7967 28.3228L24.7862 28.9657Z" fill="#FF9E18"/>
<path d="M49.1132 26.0861L45.6554 25.5211L44.204 22.6011L44.1142 22.444C43.5704 21.6109 42.7406 21.1335 41.837 21.1335C40.9838 21.1335 40.178 21.5697 39.6251 22.3281L37.7988 25.5189L34.7863 26.0246L34.6171 26.063C33.6845 26.3308 32.9905 26.9614 32.7136 27.7953C32.4356 28.6282 32.6128 29.5499 33.2 30.3215L35.5591 32.76L35.1642 36.1051L35.1551 36.2298C35.126 37.0258 35.3787 37.7457 35.8684 38.2533C36.5935 39.0056 37.7559 39.1891 38.8345 38.7016L41.8814 37.0467L44.8264 38.6513L44.9283 38.7016C45.3351 38.8867 45.7482 38.9795 46.1561 38.9795C46.8266 38.9795 47.4454 38.7218 47.8955 38.2533C48.3852 37.7457 48.6377 37.0275 48.6086 36.2298L48.2037 32.761L50.4387 30.4626L50.5615 30.3217C51.1518 29.5439 51.327 28.6226 51.0421 27.7895C50.7581 26.9573 50.055 26.3369 49.1132 26.0861ZM44.9605 31.6591L45.4076 35.444L41.8823 33.5244L38.358 35.4421L38.8041 31.6591L36.1522 28.9325L39.7621 28.326L41.8059 24.729L43.5915 28.3228L47.58 28.9646L44.9605 31.6591Z" fill="#FF9E18"/>
</svg>
