<svg width="38" height="35" viewBox="0 0 38 35" fill="none" xmlns="http://www.w3.org/2000/svg">
<path d="M36.9426 15.1328C38.0607 17.8967 36.3977 19.2539 34.5119 20.2773C26.8076 24.4269 19.0825 28.5547 11.2742 32.5141C8.59652 33.875 5.74626 35.9159 2.61571 34.3394C1.66171 33.8614 0.57746 32.5343 0.695099 31.6436C1.62967 24.8555 2.83412 18.0776 3.96868 11.2981C4.31595 9.23705 4.12735 6.92076 5.21039 5.20476C6.40651 3.32024 8.63409 1.77008 10.7435 0.593468C11.3033 0.280787 13.0093 1.92902 14.2441 2.60543C20.3626 5.93923 26.4996 9.23497 32.6182 12.5688C34.0945 13.3786 35.5044 14.2768 36.9462 15.1415L36.9426 15.1328ZM23.6836 17.491C19.699 14.9385 16.3053 12.7708 12.1675 10.1295C11.6538 14.8667 11.113 18.6716 10.987 22.447C10.9704 22.951 13.4795 24.0439 14.1241 23.6861C17.2046 21.9963 20.0562 19.904 23.6836 17.491Z" fill="#FF9E18"/>
</svg>
